<svg width="1396" height="169" viewBox="0 0 1396 169" fill="none" xmlns="http://www.w3.org/2000/svg">
<path d="M88.0288 169C71.1952 169 56.0604 165.296 42.6245 157.888C29.1885 150.325 18.6868 140.139 11.1194 127.329C3.70648 114.519 0 100.242 0 84.5C0 68.9119 3.70648 54.7128 11.1194 41.9027C18.6868 28.9384 29.0341 18.7521 42.1612 11.3438C55.2883 3.78128 70.0369 0 86.4072 0C100.306 0 112.893 2.70092 124.167 8.10275C135.595 13.5046 145.016 20.99 152.429 30.5589C159.842 39.9735 164.861 50.7772 167.486 62.9699H133.896C131.58 56.4877 128.182 50.7772 123.704 45.8384C119.379 40.8995 114.051 37.1183 107.719 34.4945C101.388 31.7164 94.3607 30.3274 86.6389 30.3274C76.2916 30.3274 67.0254 32.7968 58.8403 37.7356C50.8096 42.6744 44.4777 49.311 39.8446 57.6452C35.366 65.8251 33.1266 74.7767 33.1266 84.5C33.1266 94.2233 35.366 103.252 39.8446 111.586C44.4777 119.921 51.0413 126.634 59.5353 131.727C68.1837 136.666 78.2221 139.136 89.6504 139.136C100.461 139.136 110.499 136.821 119.765 132.19C129.186 127.56 136.136 120.924 140.614 112.281L133.201 136.821V87.5096H165.17V136.126C155.904 146.158 144.553 154.184 131.117 160.203C117.835 166.068 103.472 169 88.0288 169Z" fill="white"/>
<path d="M299.204 33.5685H208.163V89.1301H206.774L208.163 114.596V165.527H176.195V3.4726H299.204V33.5685ZM196.581 86.1205V49.311H203.994L310.092 165.527H270.015L196.581 86.1205Z" fill="white"/>
<path d="M373.313 0C389.375 0 404.046 3.78128 417.328 11.3438C430.764 18.7521 441.265 28.9384 448.833 41.9027C456.555 54.7128 460.415 68.9119 460.415 84.5C460.415 100.088 456.555 114.364 448.833 127.329C441.265 140.139 430.764 150.325 417.328 157.888C404.046 165.296 389.375 169 373.313 169C357.098 169 342.349 165.296 329.067 157.888C315.786 150.325 305.284 140.139 297.562 127.329C289.995 114.364 286.211 100.088 286.211 84.5C286.211 68.9119 289.995 54.7128 297.562 41.9027C305.284 28.9384 315.786 18.7521 329.067 11.3438C342.349 3.78128 357.098 0 373.313 0ZM373.313 30.3274C362.966 30.3274 353.7 32.7968 345.515 37.7356C337.33 42.6744 330.921 49.311 326.287 57.6452C321.654 65.8251 319.338 74.7767 319.338 84.5C319.338 94.2233 321.654 103.252 326.287 111.586C330.921 119.766 337.33 126.326 345.515 131.264C353.7 136.203 362.966 138.673 373.313 138.673C383.661 138.673 392.927 136.203 401.112 131.264C409.297 126.326 415.706 119.766 420.339 111.586C424.972 103.252 427.289 94.2233 427.289 84.5C427.289 74.7767 424.972 65.8251 420.339 57.6452C415.706 49.311 409.297 42.6744 401.112 37.7356C392.927 32.7968 383.661 30.3274 373.313 30.3274Z" fill="white"/>
<path d="M631.25 165.527H596.502L555.731 31.4849H568.24L527.469 165.527H492.952L442.451 3.4726H476.736L516.349 133.116H508.473L547.159 3.4726H578.433L616.656 133.116H608.779L648.392 3.4726H681.287L631.25 165.527Z" fill="white"/>
<path d="M739.945 3.4726C757.396 3.4726 772.222 7.02237 784.423 14.1219C796.777 21.2215 806.121 30.9448 812.453 43.2918C818.785 55.4845 821.951 69.2205 821.951 84.5C821.951 99.7795 818.785 113.593 812.453 125.94C806.121 138.132 796.777 147.779 784.423 154.878C772.222 161.978 757.396 165.527 739.945 165.527H674.85V3.4726H739.945ZM707.05 33.5685V135.432H738.092C748.439 135.432 757.396 133.348 764.964 129.181C772.685 125.014 778.631 119.072 782.801 111.355C786.971 103.638 789.056 94.6863 789.056 84.5C789.056 74.3137 786.971 65.3621 782.801 57.6452C778.631 49.9283 772.685 43.9863 764.964 39.8192C757.396 35.6521 748.439 33.5685 738.092 33.5685H707.05Z" fill="white"/>
<path d="M945.585 31.9479H896.011V137.052H945.585V165.527H814.701V137.052H864.275V31.9479H814.701V3.4726H945.585V31.9479Z" fill="white"/>
<path d="M1091.17 71.5356V96.0753H959.588V71.5356H1091.17ZM1024.91 0C1040.98 0 1055.65 3.78128 1068.93 11.3438C1082.36 18.7521 1092.87 28.9384 1100.43 41.9027C1108.16 54.7128 1112.02 68.9119 1112.02 84.5C1112.02 100.088 1108.16 114.364 1100.43 127.329C1092.87 140.139 1082.36 150.325 1068.93 157.888C1055.65 165.296 1040.98 169 1024.91 169C1008.7 169 993.95 165.296 980.668 157.888C967.387 150.325 956.885 140.139 949.163 127.329C941.596 114.364 937.812 100.088 937.812 84.5C937.812 68.9119 941.596 54.7128 949.163 41.9027C956.885 28.9384 967.387 18.7521 980.668 11.3438C993.95 3.78128 1008.7 0 1024.91 0ZM1024.91 29.6329C1014.41 29.6329 1004.99 32.1023 996.653 37.0411C988.468 41.9799 982.058 48.6936 977.425 57.1822C972.792 65.5164 970.476 74.6224 970.476 84.5C970.476 94.3776 972.792 103.561 977.425 112.049C982.058 120.384 988.468 127.02 996.653 131.959C1004.99 136.898 1014.41 139.367 1024.91 139.367C1035.42 139.367 1044.76 136.898 1052.94 131.959C1061.28 127.02 1067.77 120.384 1072.4 112.049C1077.19 103.561 1079.59 94.3776 1079.59 84.5C1079.59 74.6224 1077.19 65.5164 1072.4 57.1822C1067.77 48.6936 1061.28 41.9799 1052.94 37.0411C1044.76 32.1023 1035.42 29.6329 1024.91 29.6329Z" fill="white"/>
<path d="M1261.2 165.527H1229.24V33.5685H1151.63V165.527H1119.66V3.4726H1261.2V165.527Z" fill="white"/>
<path d="M1308.43 165.527H1276V3.4726H1308.43V165.527ZM1396 98.3904H1295.46V68.526H1396V98.3904Z" fill="white"/>
</svg>
