<svg width="16" height="16" viewBox="0 0 16 16" fill="none" xmlns="http://www.w3.org/2000/svg">
<path d="M5.50743 15.7644C5.48265 15.8863 5.57753 16 5.70403 16H10.1489C10.2754 16 10.3703 15.8863 10.3455 15.7644L9.38423 11.0369C9.34634 10.8506 9.57235 10.7247 9.71554 10.8524L13.2927 14.0425C13.388 14.1274 13.5388 14.1035 13.602 13.9934L15.827 10.1171C15.8887 10.0097 15.8359 9.87364 15.7171 9.83381L11.1594 8.30524C10.9785 8.24454 10.9785 7.99299 11.1594 7.93229L15.7171 6.40382C15.8359 6.36399 15.8887 6.22795 15.827 6.12054L13.602 2.24425C13.5388 2.13414 13.388 2.11019 13.2927 2.19514L9.71556 5.38511C9.57237 5.51281 9.34636 5.38693 9.38426 5.20058L10.3455 0.47327C10.3703 0.351358 10.2754 0.237629 10.1489 0.237629H5.70403C5.57753 0.237629 5.48265 0.351358 5.50744 0.47327L6.46869 5.20048C6.50658 5.38682 6.28058 5.5127 6.13738 5.38501L2.56026 2.19513C2.46499 2.11018 2.31413 2.13414 2.25093 2.24424L0.0259572 6.12054C-0.0356955 6.22795 0.0170672 6.36399 0.135824 6.40382L4.69352 7.93229C4.8745 7.99299 4.8745 8.24454 4.69352 8.30524L0.135819 9.83381C0.0170637 9.87364 -0.0356972 10.0097 0.0259548 10.1171L2.25093 13.9934C2.31413 14.1035 2.465 14.1274 2.56026 14.0425L6.1374 10.8525C6.2806 10.7248 6.5066 10.8507 6.46871 11.037L5.50743 15.7644Z" fill="#F1EEE6"/>
<path d="M15.2074 1.57624C14.7709 1.57624 14.4147 1.22062 14.4147 0.784915C14.4147 0.352411 14.7709 0 15.2074 0C15.6438 0 16 0.352411 16 0.784915C16 1.22062 15.6438 1.57624 15.2074 1.57624ZM15.2074 1.43848C15.5668 1.43848 15.8492 1.15014 15.8492 0.784915C15.8492 0.422893 15.5668 0.137761 15.2074 0.137761C14.8479 0.137761 14.5655 0.422893 14.5655 0.784915C14.5655 1.15014 14.8479 1.43848 15.2074 1.43848ZM14.8993 1.18218V0.358818H15.2683C15.432 0.358818 15.5347 0.458134 15.5347 0.611913C15.5347 0.701618 15.4962 0.7721 15.4224 0.816952C15.4833 0.848989 15.5058 0.890638 15.5218 0.954713L15.5475 1.07966C15.5571 1.1149 15.57 1.15975 15.5828 1.18218H15.3967C15.3871 1.16616 15.3774 1.13092 15.371 1.10849L15.3453 0.989954C15.3261 0.900249 15.2908 0.865008 15.1817 0.865008H15.079V1.18218H14.8993ZM15.2362 0.704822C15.3133 0.704822 15.3518 0.66958 15.3518 0.611913C15.3518 0.551042 15.31 0.515801 15.2362 0.515801H15.079V0.704822H15.2362Z" fill="#F1EEE6"/>
</svg>
